<svg xmlns="http://www.w3.org/2000/svg" xmlns:xlink="http://www.w3.org/1999/xlink" version="1.1" x="0px" y="0px" viewBox="0 0 20 25" style="enable-background:new 0 0 20 20;" xml:space="preserve"><g><path d="M11,7c0.6,0,1,0.4,1,1c0,0.6,0.4,1,1,1c0.6,0,1-0.4,1-1c0-1.7-1.3-3-3-3C9.3,5,8,6.3,8,8v1.5H7c-0.6,0-1,0.4-1,1   c0,0.6,0.4,1,1,1h1C8,12,8,12,8,12c0,0.6-0.4,1-1,1c-0.6,0-1,0.4-1,1c0,0.6,0.4,1,1,1h6c0.6,0,1-0.4,1-1c0-0.6-0.4-1-1-1H9.8   c0.1-0.3,0.2-0.6,0.2-0.9c0-0.1,0-0.5,0-0.6h1c0.6,0,1-0.4,1-1c0-0.6-0.4-1-1-1h-1V8C10,7.4,10.5,7,11,7z"/><path d="M10,0C4.5,0,0,4.5,0,10c0,5.5,4.5,10,10,10c5.5,0,10-4.5,10-10C20,4.5,15.5,0,10,0z M10,18c-4.4,0-8-3.6-8-8   c0-4.4,3.6-8,8-8c4.4,0,8,3.6,8,8C18,14.4,14.4,18,10,18z"/></g></svg>