<svg xmlns:dc="http://purl.org/dc/elements/1.1/" xmlns:cc="http://creativecommons.org/ns#" xmlns:rdf="http://www.w3.org/1999/02/22-rdf-syntax-ns#" xmlns:svg="http://www.w3.org/2000/svg" xmlns="http://www.w3.org/2000/svg" xmlns:sodipodi="http://sodipodi.sourceforge.net/DTD/sodipodi-0.dtd" xmlns:inkscape="http://www.inkscape.org/namespaces/inkscape" version="1.1" x="0px" y="0px" viewBox="0 0 100 125"><g transform="translate(0,-952.36218)"><path style="text-indent:0;text-transform:none;direction:ltr;block-progression:tb;baseline-shift:baseline;color:#000000;enable-background:accumulate;" d="m 50.000378,954.36215 c -7.16785,0 -13,5.83216 -13,13 0,7.16784 5.83215,13 13,13 7.16786,0 13,-5.83216 13,-13 0,-7.16784 -5.83214,-13 -13,-13 z m 0,2 c 6.08698,0 11,4.91304 11,11 0,6.08696 -4.91302,11 -11,11 -6.08697,0 -11,-4.91304 -11,-11 0,-6.08696 4.91303,-11 11,-11 z m 23.9375,23.96875 a 1.0001,1.0001 0 0 0 -0.125,0.0312 1.0001,1.0001 0 0 0 -0.25,0.0937 l -12.65625,6.3125 c -3.44006,-0.90304 -7.09018,-1.40615 -10.90625,-1.40615 -16.6665,0 -30.75027,9.341 -34.1875,22.00005 -3.45013,-0.086 -6.8125004,-2.5469 -6.8125004,-7.0001 a 1.0001,1.0001 0 0 0 -1.125,-1.03119 1.0001,1.0001 0 0 0 -0.875,1.03119 c 0,5.328 4.0975604,8.6698 8.3750004,8.9688 -0.23733,1.3197 -0.375,2.6557 -0.375,4.0313 0,8.4391 4.71648,15.9316 12,21.0312 l 0,14.9688 a 1.0001,1.0001 0 0 0 1,1 l 13,0 a 1.0001,1.0001 0 0 0 0.96875,-0.75 l 2.5,-8.6875 c 1.80496,0.2315 3.64151,0.4375 5.53125,0.4375 1.88974,0 3.7263,-0.206 5.53125,-0.4375 l 2.5,8.6875 a 1.0001,1.0001 0 0 0 0.96875,0.75 l 13,0 a 1.0001,1.0001 0 0 0 1,-1 l 0,-14.9688 c 4.08953,-2.863 7.38938,-6.4614 9.46875,-10.5937 l 9.78125,-2.4688 a 1.0001,1.0001 0 0 0 0.75,-0.9687 l 0,-13 a 1.0001,1.0001 0 0 0 -0.75,-0.9688 l -9.21875,-2.3125 c -1.98135,-4.52759 -5.3813,-8.48829 -9.71875,-11.59375 l 1.6875,-11 a 1.0001,1.0001 0 0 0 -1.0625,-1.15625 z m -1.21875,2.78125 -1.5,9.65625 a 1.0001,1.0001 0 0 0 0.4375,0.96875 c 4.47354,3.07056 7.85754,7.06345 9.71875,11.56255 a 1.0001,1.0001 0 0 0 0.6875,0.5937 l 8.9375,2.25 0,11.4375 -9.4375,2.375 a 1.0001,1.0001 0 0 0 -0.65625,0.5313 c -1.96857,4.1276 -5.25395,7.7815 -9.46875,10.625 a 1.0001,1.0001 0 0 0 -0.4375,0.8437 l 0,14.4063 -11.25,0 -2.5,-8.75 a 1.0001,1.0001 0 0 0 -1.125,-0.7188 c -1.99115,0.2955 -4.02919,0.4688 -6.125,0.4688 -2.0958,0 -4.13384,-0.1733 -6.125,-0.4688 a 1.0001,1.0001 0 0 0 -1.125,0.7188 l -2.5,8.75 -11.25,0 0,-14.4063 a 1.0001,1.0001 0 0 0 -0.4375,-0.8437 c -7.12107,-4.8042 -11.5625,-11.878 -11.5625,-19.75 0,-14.23119 14.6515,-26.00005 33,-26.00005 3.78375,0 7.42941,0.48218 10.8125,1.40625 a 1.0001,1.0001 0 0 0 0.6875,-0.0625 l 11.21875,-5.59375 z m -22.71875,9.25 c -4.4518,0 -8.66348,0.82519 -12.375,2.3125 a 1.0001,1.0001 0 1 0 0.75,1.84376 c 3.46641,-1.3891 7.42337,-2.15626 11.625,-2.15626 2.71478,0 5.30495,0.32883 7.75,0.93746 a 1.0004882,1.0004882 0 1 0 0.5,-1.93746 c -2.6028,-0.64793 -5.37289,-1 -8.25,-1 z m 20,12.00005 c -1.65686,0 -3,1.3432 -3,3 0,1.6569 1.34314,3 3,3 1.65685,0 3,-1.3431 3,-3 0,-1.6568 -1.34315,-3 -3,-3 z" fill="#000000" fill-opacity="1" stroke="none" marker="none" visibility="visible" display="inline" overflow="visible"/></g></svg>